<?xml version="1.0" encoding="UTF-8"?>
<svg width="3767px" height="1160px" viewBox="0 0 3767 1160" version="1.1" xmlns="http://www.w3.org/2000/svg" xmlns:xlink="http://www.w3.org/1999/xlink">
    <!-- Generator: Sketch 57.1 (83088) - https://sketch.com -->
    <title>b+b-main-logo</title>
    <desc>Created with Sketch.</desc>
    <g id="Page-1" stroke="none" stroke-width="1" fill="none" fill-rule="evenodd">
        <path d="M1461.3,1012.78 C1503.01998,1012.78 1534.57,1044.52 1534.57,1085.05 C1534.57,1126.78 1503.01998,1159.33 1461.3,1159.33 C1419.58,1159.33 1388.01998,1126.78 1388.01998,1085.05 C1388,1044.52 1419.57,1012.78 1461.3,1012.78 Z M2276.09,1012.78 C2317.82,1012.78 2349.36,1044.52 2349.36,1085.05 C2349.36,1126.78 2317.82,1159.33 2276.09,1159.33 C2234.36,1159.33 2202.81,1126.78 2202.81,1085.05 C2202.81,1044.52 2234.36,1012.78 2276.09,1012.78 Z M1199.75,1015.17 L1199.75,1134.77 L1261,1134.77 L1261,1156.93 L1174,1156.93 L1174,1015.17 L1199.75,1015.17 Z M1700.68,1015.17 L1754.39,1097.03 C1759.78,1105.22 1766.17,1119.03 1766.17,1119.03 L1766.57,1119.03 C1766.57,1119.03 1765.2137,1105.78896 1765.18062,1097.34067 L1765.18,1015.17 L1790.73,1015.17 L1790.73,1156.93 L1765.18,1156.93 L1711.47,1075.27 C1706.07,1067.09 1699.68,1053.27 1699.68,1053.27 L1699.29,1053.27 C1699.29,1053.27 1700.68,1066.85 1700.68,1075.27 L1700.68,1156.93 L1674.93,1156.93 L1674.93,1015.17 L1700.68,1015.17 Z M2002.22,1015.17 C2045.95,1015.17 2074.5,1041.17 2074.5,1085.85 C2074.5,1130.53 2045.95,1156.93 2002.22,1156.93 L1953.91,1156.93 L1953.91,1015.17 L2002.22,1015.17 Z M2505.47,1015.17 L2559.18,1097.03 C2564.57,1105.22 2570.95,1119.03 2570.95,1119.03 L2571.36,1119.03 C2571.36,1119.03 2569.99394,1105.78896 2569.96062,1097.34067 L2569.96,1015.17 L2595.52,1015.17 L2595.52,1156.93 L2570,1156.93 L2516.29,1075.27 C2510.9,1067.09 2504.51,1053.27 2504.51,1053.27 L2504.11,1053.27 C2504.11,1053.27 2505.51,1066.85 2505.51,1075.27 L2505.51,1156.93 L2479.75,1156.93 L2479.71,1015.17 L2505.47,1015.17 Z M1461.3,1036.35 C1435.35,1036.35 1414.57,1057.11 1414.57,1085.06 C1414.57,1114.21 1435.34,1135.77 1461.3,1135.77 L1461.3,1135.78 C1487.3,1135.78 1508.01,1114.22 1508.01,1085.06 C1508.01,1057.06 1487.25,1036.35 1461.3,1036.35 Z M2276.09,1036.35 C2250.13,1036.35 2229.37,1057.11 2229.37,1085.06 C2229.37,1114.21 2250.13,1135.77 2276.09,1135.77 L2276.09,1135.78 C2302.09,1135.78 2322.81,1114.22 2322.81,1085.06 C2322.81,1057.06 2302.05,1036.35 2276.09,1036.35 Z M2000.83,1037.33 L1979.66,1037.33 L1979.66,1134.77 L2000.83,1134.77 C2029.58,1134.77 2047.95,1117.77 2047.95,1085.85 C2047.95,1054.31 2029.18,1037.33 2000.83,1037.33 Z M3329.72,0.08 C3570.74,0.08 3766.12,195.47 3766.12,436.49 L3766.06153,443.706758 C3762.20744,681.398062 3568.31,872.89 3329.72,872.89 L436.8,872.89 C195.78,872.89 0.4,677.49 0.4,436.49 L0.4584702,429.273239 C4.31256,191.581739 198.21,0.08 436.8,0.08 L3329.72,0.08 Z M399.62,210.8 L389.21,210.8 C383.3,210.8 378.4,212.69 374.65,216.44 C370.871225,220.327031 368.832226,225.581513 369,231 L369,639.29 C369,645.21 370.91,650.17 374.66,653.91 C378.41,657.65 383.3,659.55 389.22,659.55 L399.59,659.55 C405.51,659.55 410.4,657.66 414.15,653.91 C417.9,650.16 419.8,645.27 419.8,639.35 L419.8,628.79 C443.89,653.29 476.2,665.68 516.09,665.68 C562.3,665.68 597.01,650.19 619.3,619.68 C641,589.92 652.7,553.36 654,511 C654.45,506.65 654.66,500.75 654.66,493.4 C654.66,486.05 654.45,480.14 654.04,475.81 C652.74,433.45 641.07,396.88 619.34,367.12 C597.05,336.59 562.32,321.12 516.13,321.12 C476.51,321.12 444.2,333.57 419.84,358.18 L419.84,231 C419.99705,225.581454 417.955544,220.329804 414.18,216.44 C410.43,212.7 405.54,210.8 399.62,210.8 Z M2185.2089,216.441102 C2181.36503,212.597232 2176.08028,210.549564 2170.65,210.8 L2160.23,210.8 C2154.32,210.8 2149.42,212.7 2145.67,216.44 C2141.90078,220.332461 2139.86648,225.584141 2140.03,231 L2140.03,639.35 C2140.03,645.27 2141.92,650.17 2145.67,653.91 C2149.42,657.65 2154.32,659.55 2160.23,659.55 L2170.65,659.55 C2176.06361,659.7177 2181.31376,657.68259 2185.2,653.91 C2188.95,650.17 2190.85,645.27 2190.85,639.35 L2190.85,628.79 C2214.95,653.29 2247.25,665.68 2287.15,665.68 C2333.36,665.68 2368.06,650.19 2390.36,619.68 C2412.05,589.93 2423.76,553.36 2425.05,511 C2425.47,506.65 2425.68,500.75 2425.68,493.4 C2425.68,486.05 2425.47,480.14 2425.05,475.81 C2423.76,433.44 2412.09,396.87 2390.36,367.12 C2368.06,336.59 2333.34,321.12 2287.15,321.12 C2247.52,321.12 2215.22,333.57 2190.85,358.18 L2190.85,231 C2191.10044,225.569719 2189.05277,220.284972 2185.2089,216.441102 Z M1271.86,321.17 C1227.63,321.17 1192.78,334.37 1168.26,360.37 C1143.91,386.22 1130.92,422.73 1129.65,468.73 L1129.04,493.59 L1129.65,518.13 C1130.92,564.18 1143.91,600.63 1168.26,626.47 C1192.77,652.49 1227.62,665.67 1271.86,665.67 C1299.76,665.67 1323.85,660.66 1343.86,650.55 C1363.87,640.44 1379.2,627.11 1389.13,611.34 C1399.06,595.57 1404.56,579 1405.47,562 C1406.08051,556.353653 1403.91464,550.76191 1399.66,547 C1395.80152,543.282814 1390.64771,541.2134 1385.29,541.23 L1376.7,541.23 C1370.79,541.23 1366.21,542.82 1363.07,545.95 C1360.54,548.52 1358.23,552.38 1355.68,558.52 C1348.05,579.52 1337.5,594.5 1323.98,603.33 C1310.46,612.16 1292.92,616.64 1271.86,616.64 C1244.05,616.64 1222.55,608.44 1206.46,591.99 C1190.37,575.54 1181.62,549.51 1180.46,514.62 L1179.85,493.42 L1180.46,472.18 C1181.63,437.29 1190.26,411.39 1206.46,394.8 C1222.66,378.21 1244.05,370.15 1271.86,370.15 C1292.9,370.15 1310.58,374.73 1323.98,383.47 C1337.38,392.21 1348.05,407.29 1355.79,428.56 C1358.23,434.41 1360.54,438.31 1363.07,440.84 C1366.21,443.97 1370.79,445.56 1376.7,445.56 L1385.29,445.56 C1390.65094,445.583449 1395.80839,443.508983 1399.66,439.78 C1403.90456,436.040929 1406.07069,430.474599 1405.47,424.85 C1404.56,407.88 1399.16,391.38 1389.13,375.49 C1379.1,359.6 1363.73,346.34 1343.86,336.3 C1323.99,326.26 1299.76,321.17 1271.86,321.17 Z M947.74,321.12 C921.84,321.12 899.55,325.89 881.47,335.37 C863.39,344.85 849.78,356.2 841.02,369.13 C831.99,382.47 827.6,394 827.6,404.47 C827.66553,415.598896 836.671104,424.60447 847.8,424.67 L856.38,424.67 C861.132215,424.836406 865.790167,423.316816 869.53,420.38 C872.85,417.7 875.44,413.39 877.53,407.14 C880.69,397.37 888.29,388.65 900.11,381.37 C912.26,373.89 928.3,370.1 947.79,370.1 C974.2,370.1 993.94,375.68 1006.2,386.51 C1018.46,397.34 1024.46,412.64 1024.46,433.29 L1024.46,448.9 L933.46,461.58 C895.22,466.62 864.31,478.22 841.59,496.06 C818.12,514.49 806.219122,538.56 806.219122,567.56 C806.161689,585.512402 811.872249,603.008659 822.51,617.47 C833.17,632.22 847.49,644.06 865.17,652.68 C883.096279,661.340035 902.772062,665.767172 922.68,665.62 C952.27,665.62 976.55,660.61 994.85,650.71 C1005.72134,644.971094 1015.70483,637.68894 1024.49,629.09 L1024.49,639.29 C1024.49,645.21 1026.4,650.11 1030.14,653.85 C1033.88,657.59 1038.78,659.49 1044.69,659.49 L1055.11,659.49 C1060.52586,659.653524 1065.77754,657.61922 1069.67,653.85 C1073.41,650.1 1075.31,645.21 1075.31,639.29 L1075.23,435.12 C1075.23,403.74 1065.39,376.66 1045.96,354.66 C1026.33,332.4 993.28,321.12 947.74,321.12 Z M2866.56211,332.890679 C2862.71671,329.04718 2857.43111,326.999788 2852,327.25 L2841.59,327.25 C2835.68,327.25 2830.78,329.15 2827.03,332.89 C2823.26176,336.783088 2821.22762,342.034338 2821.39,347.45 L2821.39,518.51 C2821.39,549.3 2813.34,573.55 2797.14,590.88 C2780.94,608.21 2759.58,616.64 2731.84,616.64 C2674.88,616.64 2647.2,584.51 2647.2,518.51 L2647.2,347.45 C2647.44731,342.020581 2645.39864,336.737682 2641.55548,332.894522 C2637.71232,329.051363 2632.42942,327.002688 2627,327.25 L2616.57,327.25 C2610.65,327.25 2605.75,329.15 2602.01,332.89 C2598.23909,336.782074 2596.20143,342.033093 2596.36,347.45 L2596.36,521.56 C2596.36,563.85 2607.4,598.7 2629.16,625.15 C2651.24,652 2683.7,665.61 2725.7,665.61 C2751.19,665.61 2772.55,661.25 2789.19,652.61 C2801.13147,646.315899 2811.99694,638.164261 2821.38,628.46 L2821.38,639.29 C2821.38,645.21 2823.27,650.11 2827.02,653.85 C2830.77,657.59 2835.67,659.49 2841.58,659.49 L2852,659.49 C2857.41586,659.653524 2862.66754,657.61922 2866.56,653.85 C2870.3,650.1 2872.21,645.21 2872.21,639.29 L2872.21,347.45 C2872.45752,342.018763 2870.40752,336.734179 2866.56211,332.890679 Z M2525.05548,216.444522 C2521.21232,212.601363 2515.92942,210.552688 2510.5,210.8 L2500.07,210.8 C2494.17,210.8 2489.27,212.69 2485.52,216.44 C2481.74488,220.328679 2479.70957,225.582959 2479.88,231 L2479.88,639.29 C2479.88,645.21 2481.77,650.11 2485.52,653.85 C2489.27,657.59 2494.16,659.49 2500.07,659.49 L2510.5,659.49 C2515.91361,659.6577 2521.16376,657.62259 2525.05,653.85 C2528.8,650.1 2530.7,645.21 2530.7,639.29 L2530.7,231 C2530.94731,225.570581 2528.89864,220.287682 2525.05548,216.444522 Z M1502.35548,216.444522 C1498.51232,212.601363 1493.22942,210.552688 1487.8,210.8 L1477.38,210.8 C1471.46,210.8 1466.56,212.7 1462.82,216.44 C1459.04488,220.328679 1457.00957,225.582959 1457.18,231 L1457.18,639.29 C1457.18,645.21 1459.08,650.11 1462.82,653.85 C1466.56,657.59 1471.46,659.49 1477.38,659.49 L1487.8,659.49 C1493.21566,659.652377 1498.46691,657.61824 1502.36,653.85 C1506.1,650.11 1508,645.21 1508,639.29 L1508,520.57 L1650.62,647.29 C1656.75,652.95 1661.38,656.22 1665.17,657.56 C1668.78,658.86 1673.93,659.49 1680.93,659.49 L1690.73,659.49 C1695.81244,659.631935 1700.73483,657.704843 1704.37,654.15 C1707.92231,650.517266 1709.8492,645.599007 1709.71,640.52 C1709.71,635.18 1706.49,629.72 1699.49,623.25 L1535.13,476.62 L1683.64,364.04 C1690.84,359.05 1694.5,353.07 1694.5,346.26 C1694.71127,341.159049 1692.77742,336.202598 1689.16741,332.592588 C1685.5574,328.982579 1680.60095,327.04873 1675.5,327.26 L1663.85,327.26 C1657.1,327.26 1652.39,327.86 1649,329.26 C1647,330.06 1643.4,331.94 1634,339 L1508,434.5 L1508,231 C1508.24731,225.570581 1506.19864,220.287682 1502.35548,216.444522 Z M3274.31,321.12 C3249.94,321.12 3227.88,326.64 3208.75,337.64 C3193.53808,346.212851 3180.42983,358.070742 3170.38,372.35 C3149.16,338.34 3116.12,321.12 3071.99,321.12 C3051.43,321.12 3033.43,324.86 3018.43,332.23 C3008.36318,337.233078 2999.11986,343.744879 2991.02,351.54 L2991.02,347.45 C2991.27044,342.019719 2989.22277,336.734972 2985.3789,332.891102 C2981.53503,329.047232 2976.25028,326.999564 2970.82,327.25 L2960.4,327.25 C2954.49,327.25 2949.59,329.15 2945.84,332.89 C2942.07176,336.783088 2940.03762,342.034338 2940.2,347.45 L2940.2,639.24 C2940.2,645.16 2942.09,650.06 2945.84,653.8 C2949.59,657.54 2954.48,659.44 2960.4,659.44 L2970.8,659.44 C2976.21361,659.6077 2981.46376,657.57259 2985.35,653.8 C2989.1,650.06 2991,645.16 2991,639.24 L2991,466.34 C2991,432.02 2998.48,407.11 3013.25,392.34 C3028.22,377.37 3045.42,370.09 3065.84,370.09 C3087.88,370.09 3105.77,377.31 3120.53,392.31 C3135.13,407.09 3142.53,432.21 3142.53,467 L3142.53,639.29 C3142.53,645.21 3144.43,650.11 3148.17,653.85 C3151.91,657.59 3156.81,659.49 3162.73,659.49 L3173.15,659.49 C3178.56586,659.653524 3183.81754,657.61922 3187.71,653.85 C3191.45,650.1 3193.35,645.21 3193.35,639.29 L3193.35,467 C3193.35,432.23 3200.83,407.11 3215.6,392.34 C3230.58,377.37 3247.78,370.09 3268.18,370.09 C3291.43,370.09 3309.72,377.36 3323.74,391.94 C3337.76,406.52 3344.86,431.77 3344.86,467 L3344.86,639.29 C3344.86,645.21 3346.75,650.11 3350.5,653.85 C3354.25,657.59 3359.14,659.49 3365.06,659.49 L3375.48,659.49 C3380.89586,659.653524 3386.14754,657.61922 3390.04,653.85 C3393.78,650.1 3395.68,645.21 3395.68,639.29 L3395.68,460.93 C3395.68,416.83 3384.36,382.2 3362.02,357.93 C3339.54,333.5 3310.03,321.12 3274.31,321.12 Z M739.48,210.8 L729.06,210.8 C723.15,210.8 718.25,212.7 714.51,216.44 C710.731225,220.327031 708.692226,225.581513 708.86,231 L708.86,639.29 C708.86,645.21 710.77,650.11 714.51,653.85 C718.25,657.59 723.15,659.49 729.06,659.49 L739.48,659.49 C745.39,659.49 750.3,657.6 754.04,653.85 C757.78,650.1 759.68,645.21 759.68,639.29 L759.68,231 C759.847774,225.581513 757.808775,220.327031 754.03,216.44 C750.29,212.69 745.39,210.8 739.48,210.8 Z M1883.38,356.87 C1878.73228,356.771298 1874.22333,358.456787 1870.78,361.58 C1868.35,363.8 1865.45,367.93 1865.45,374.8 L1865.45,467.13 L1771.18,467.13 C1766.39243,467.025284 1761.76976,468.880354 1758.38268,472.265545 C1754.9956,475.650736 1753.13795,480.272369 1753.24,485.06 L1753.24,499.69 C1753.13508,504.478469 1754.99181,509.101784 1758.37953,512.487611 C1761.76724,515.873439 1766.39159,517.727585 1771.18,517.62 L1865.45,517.62 L1865.45,612.88 C1865.34518,617.666695 1867.20055,622.288414 1870.58607,625.67393 C1873.97159,629.059446 1878.59331,630.914816 1883.38,630.81 L1899,630.81 C1903.78242,630.906424 1908.39721,629.047691 1911.7777,625.663432 C1915.15818,622.279173 1917.01176,617.662314 1916.91,612.88 L1916.91,517.62 L2011.18,517.62 C2015.96669,517.724816 2020.58841,515.869446 2023.97393,512.48393 C2027.35945,509.098414 2029.21482,504.476695 2029.11,499.69 L2029.1,485.02 C2029.20482,480.233305 2027.34945,475.611586 2023.96393,472.22607 C2020.57841,468.840554 2015.95669,466.985184 2011.17,467.09 L1916.9,467.09 L1916.9,374.76 C1916.9,369.4 1915.22,365 1912,361.76 C1908.78,358.52 1904.4,356.87 1899,356.87 L1883.38,356.87 Z M2284.52,371.14 C2318.3,371.14 2341.3,382.02 2354.85,404.4 C2368.87,427.57 2375.97,457.87 2375.97,494.49 C2375.97,501.314667 2375.78311,506.737667 2375.4274,510.60544 L2375.39,511 L2375.39,511.41 C2374.22,543 2366.29,569.14 2351.83,589 C2337.7,608.38 2315.7,617.81 2284.53,617.83 C2254.15,617.83 2232.02,608.16 2216.87,588.27 C2201.61736,568.242874 2193.22426,544.35603 2191.91287,517.343562 L2191.87,516.4 L2191.25,492.82 L2191.87,468.87 C2192.20158,452.50599 2195.94829,436.391746 2202.87,421.56 C2209.73868,406.925963 2220.40142,394.398618 2233.75,385.28 C2247.27,375.9 2264.36,371.14 2284.52,371.14 Z M512.5,371.14 C546.28,371.14 569.28,382.02 582.83,404.4 C596.84,427.57 603.94,457.88 603.94,494.49 C603.94,501.305 603.762456,506.727678 603.407367,510.604473 L603.37,511 L603.37,511.41 C602.19,543 594.26,569.14 579.8,589 C565.68,608.38 543.68,617.81 512.51,617.83 C482.13,617.83 460,608.16 444.85,588.27 C429.597356,568.242874 421.194489,544.346258 419.892536,517.343225 L419.85,516.4 L419.23,492.82 L419.85,468.87 C420.180327,452.509043 423.927126,436.397807 430.85,421.57 C437.712352,406.932194 448.372086,394.400878 461.72,385.28 C475.25,375.9 492.33,371.14 512.5,371.14 Z M1024.86,497.27 L1024.86,510.38 C1024.86,545.23 1015.81,572.14 997.95,590.38 C979.87,608.81 957.36,617.81 929.13,617.81 C909.67,617.81 892.43,613.02 877.87,603.55 C864,594.58 857.31,582.18 857.31,565.65 C857.31,551.19 864.73,539.39 880,529.58 C896.071429,519.244835 920.378819,511.78541 952.293365,507.414551 L953.36,507.27 L1024.86,497.27 Z" id="b+b-main-logo" fill="#000000" fill-rule="nonzero"></path>
    </g>
</svg>